<mxfile host="app.diagrams.net" agent="Mozilla/5.0 (X11; Linux x86_64; rv:135.0) Gecko/20100101 Firefox/135.0" version="26.1.1">
  <diagram name="Page-1" id="fFQ6WQgZWspTpNPEQZPx">
    <mxGraphModel dx="584" dy="789" grid="1" gridSize="10" guides="1" tooltips="1" connect="1" arrows="1" fold="1" page="1" pageScale="1" pageWidth="850" pageHeight="1100" math="0" shadow="0">
      <root>
        <mxCell id="0" />
        <mxCell id="1" parent="0" />
        <mxCell id="LJ91YOR7zUgHexyTRzu9-49" value="VPC" style="points=[[0,0],[0.25,0],[0.5,0],[0.75,0],[1,0],[1,0.25],[1,0.5],[1,0.75],[1,1],[0.75,1],[0.5,1],[0.25,1],[0,1],[0,0.75],[0,0.5],[0,0.25]];outlineConnect=0;gradientColor=none;html=1;whiteSpace=wrap;fontSize=12;fontStyle=0;container=1;pointerEvents=0;collapsible=0;recursiveResize=0;shape=mxgraph.aws4.group;grIcon=mxgraph.aws4.group_vpc2;strokeColor=#8C4FFF;fillColor=none;verticalAlign=top;align=left;spacingLeft=30;fontColor=#AAB7B8;dashed=0;" parent="1" vertex="1">
          <mxGeometry x="880" y="220" width="930" height="380" as="geometry" />
        </mxCell>
        <mxCell id="LJ91YOR7zUgHexyTRzu9-116" style="edgeStyle=orthogonalEdgeStyle;rounded=0;orthogonalLoop=1;jettySize=auto;html=1;" parent="LJ91YOR7zUgHexyTRzu9-49" source="LJ91YOR7zUgHexyTRzu9-53" target="LJ91YOR7zUgHexyTRzu9-54" edge="1">
          <mxGeometry relative="1" as="geometry" />
        </mxCell>
        <mxCell id="LJ91YOR7zUgHexyTRzu9-53" value="NGW public subnet" style="points=[[0,0],[0.25,0],[0.5,0],[0.75,0],[1,0],[1,0.25],[1,0.5],[1,0.75],[1,1],[0.75,1],[0.5,1],[0.25,1],[0,1],[0,0.75],[0,0.5],[0,0.25]];outlineConnect=0;gradientColor=none;html=1;whiteSpace=wrap;fontSize=12;fontStyle=0;container=1;pointerEvents=0;collapsible=0;recursiveResize=0;shape=mxgraph.aws4.group;grIcon=mxgraph.aws4.group_security_group;grStroke=0;strokeColor=#7AA116;fillColor=#F2F6E8;verticalAlign=top;align=left;spacingLeft=30;fontColor=#248814;dashed=0;" parent="LJ91YOR7zUgHexyTRzu9-49" vertex="1">
          <mxGeometry x="40" y="50" width="290" height="160" as="geometry" />
        </mxCell>
        <mxCell id="LJ91YOR7zUgHexyTRzu9-70" value="&lt;div&gt;NAT&lt;/div&gt;&lt;div&gt;gateway&lt;/div&gt;" style="sketch=0;outlineConnect=0;fontColor=#232F3E;gradientColor=none;fillColor=#8C4FFF;strokeColor=none;dashed=0;verticalLabelPosition=bottom;verticalAlign=top;align=center;html=1;fontSize=12;fontStyle=0;aspect=fixed;pointerEvents=1;shape=mxgraph.aws4.nat_gateway;" parent="LJ91YOR7zUgHexyTRzu9-53" vertex="1">
          <mxGeometry x="45" y="40" width="78" height="78" as="geometry" />
        </mxCell>
        <mxCell id="LJ91YOR7zUgHexyTRzu9-71" value="&lt;div&gt;Route table&lt;/div&gt;&lt;div&gt;(to firewall endpoint)&lt;/div&gt;" style="sketch=0;outlineConnect=0;fontColor=#232F3E;gradientColor=none;fillColor=#8C4FFF;strokeColor=none;dashed=0;verticalLabelPosition=bottom;verticalAlign=top;align=center;html=1;fontSize=12;fontStyle=0;aspect=fixed;pointerEvents=1;shape=mxgraph.aws4.route_table;" parent="LJ91YOR7zUgHexyTRzu9-53" vertex="1">
          <mxGeometry x="177" y="41" width="78" height="76" as="geometry" />
        </mxCell>
        <mxCell id="0TdQGq1oMp6gD4ybkivO-7" style="edgeStyle=orthogonalEdgeStyle;rounded=0;orthogonalLoop=1;jettySize=auto;html=1;startArrow=classic;startFill=1;" edge="1" parent="LJ91YOR7zUgHexyTRzu9-49" source="LJ91YOR7zUgHexyTRzu9-54" target="LJ91YOR7zUgHexyTRzu9-117">
          <mxGeometry relative="1" as="geometry" />
        </mxCell>
        <mxCell id="LJ91YOR7zUgHexyTRzu9-54" value="Firewall public subnet" style="points=[[0,0],[0.25,0],[0.5,0],[0.75,0],[1,0],[1,0.25],[1,0.5],[1,0.75],[1,1],[0.75,1],[0.5,1],[0.25,1],[0,1],[0,0.75],[0,0.5],[0,0.25]];outlineConnect=0;gradientColor=none;html=1;whiteSpace=wrap;fontSize=12;fontStyle=0;container=1;pointerEvents=0;collapsible=0;recursiveResize=0;shape=mxgraph.aws4.group;grIcon=mxgraph.aws4.group_security_group;grStroke=0;strokeColor=#7AA116;fillColor=#F2F6E8;verticalAlign=top;align=left;spacingLeft=30;fontColor=#248814;dashed=0;" parent="LJ91YOR7zUgHexyTRzu9-49" vertex="1">
          <mxGeometry x="390" y="50" width="290" height="160" as="geometry" />
        </mxCell>
        <mxCell id="LJ91YOR7zUgHexyTRzu9-55" value="&lt;div&gt;Network&lt;/div&gt;&lt;div&gt;firewall&lt;/div&gt;" style="image;aspect=fixed;html=1;points=[];align=center;fontSize=12;image=img/lib/azure2/networking/Firewalls.svg;labelBackgroundColor=light-dark(#f2f6e8, #ededed);" parent="LJ91YOR7zUgHexyTRzu9-54" vertex="1">
          <mxGeometry x="60" y="50" width="71" height="60" as="geometry" />
        </mxCell>
        <mxCell id="LJ91YOR7zUgHexyTRzu9-72" value="&lt;div&gt;Route table&lt;/div&gt;&lt;div&gt;(to internet gateway)&lt;/div&gt;" style="sketch=0;outlineConnect=0;fontColor=#232F3E;gradientColor=none;fillColor=#8C4FFF;strokeColor=none;dashed=0;verticalLabelPosition=bottom;verticalAlign=top;align=center;html=1;fontSize=12;fontStyle=0;aspect=fixed;pointerEvents=1;shape=mxgraph.aws4.route_table;" parent="LJ91YOR7zUgHexyTRzu9-54" vertex="1">
          <mxGeometry x="180" y="42" width="78" height="76" as="geometry" />
        </mxCell>
        <mxCell id="LJ91YOR7zUgHexyTRzu9-117" value="Internet gateway" style="sketch=0;outlineConnect=0;fontColor=#232F3E;gradientColor=none;fillColor=#8C4FFF;strokeColor=none;dashed=0;verticalLabelPosition=bottom;verticalAlign=top;align=center;html=1;fontSize=12;fontStyle=0;aspect=fixed;pointerEvents=1;shape=mxgraph.aws4.internet_gateway;" parent="LJ91YOR7zUgHexyTRzu9-49" vertex="1">
          <mxGeometry x="770" y="91" width="78" height="78" as="geometry" />
        </mxCell>
        <mxCell id="0TdQGq1oMp6gD4ybkivO-2" value="" style="shape=flexArrow;endArrow=classic;html=1;rounded=0;width=44;endSize=12.902857142857142;strokeColor=light-dark(#613583, #ededed);fontColor=light-dark(#613583, #ededed);" edge="1" parent="LJ91YOR7zUgHexyTRzu9-49">
          <mxGeometry width="50" height="50" relative="1" as="geometry">
            <mxPoint x="40" y="250" as="sourcePoint" />
            <mxPoint x="640" y="250" as="targetPoint" />
          </mxGeometry>
        </mxCell>
        <mxCell id="0TdQGq1oMp6gD4ybkivO-3" value="&lt;font style=&quot;font-size: 15px;&quot;&gt;All traffic routed to the internet (DESTINATION) through the firewall (TARGET)&lt;/font&gt;" style="edgeLabel;html=1;align=center;verticalAlign=middle;resizable=0;points=[];fontColor=light-dark(#613583, #ededed);" vertex="1" connectable="0" parent="0TdQGq1oMp6gD4ybkivO-2">
          <mxGeometry x="0.1673" y="4" relative="1" as="geometry">
            <mxPoint x="-70" y="4" as="offset" />
          </mxGeometry>
        </mxCell>
        <mxCell id="0TdQGq1oMp6gD4ybkivO-5" value="" style="shape=flexArrow;endArrow=classic;html=1;rounded=0;width=44;endSize=12.902857142857142;strokeColor=light-dark(#613583, #ededed);fontColor=light-dark(#613583, #ededed);" edge="1" parent="LJ91YOR7zUgHexyTRzu9-49">
          <mxGeometry width="50" height="50" relative="1" as="geometry">
            <mxPoint x="395" y="320" as="sourcePoint" />
            <mxPoint x="1120" y="320" as="targetPoint" />
          </mxGeometry>
        </mxCell>
        <mxCell id="0TdQGq1oMp6gD4ybkivO-6" value="&lt;font style=&quot;font-size: 15px;&quot;&gt;All traffic routed to the internet (DESTINATION) through the internet gateway (TARGET)&lt;/font&gt;" style="edgeLabel;html=1;align=center;verticalAlign=middle;resizable=0;points=[];fontColor=light-dark(#613583, #ededed);" vertex="1" connectable="0" parent="0TdQGq1oMp6gD4ybkivO-5">
          <mxGeometry x="0.1673" y="4" relative="1" as="geometry">
            <mxPoint x="-70" y="4" as="offset" />
          </mxGeometry>
        </mxCell>
        <mxCell id="LJ91YOR7zUgHexyTRzu9-120" style="edgeStyle=orthogonalEdgeStyle;rounded=0;orthogonalLoop=1;jettySize=auto;html=1;startArrow=classic;startFill=1;" parent="1" source="LJ91YOR7zUgHexyTRzu9-117" target="LJ91YOR7zUgHexyTRzu9-119" edge="1">
          <mxGeometry relative="1" as="geometry">
            <Array as="points">
              <mxPoint x="1770" y="350" />
              <mxPoint x="1770" y="350" />
            </Array>
          </mxGeometry>
        </mxCell>
        <mxCell id="LJ91YOR7zUgHexyTRzu9-119" value="Public internet" style="sketch=0;outlineConnect=0;fontColor=#232F3E;gradientColor=none;fillColor=#232F3D;strokeColor=none;dashed=0;verticalLabelPosition=bottom;verticalAlign=top;align=center;html=1;fontSize=12;fontStyle=0;aspect=fixed;pointerEvents=1;shape=mxgraph.aws4.internet;" parent="1" vertex="1">
          <mxGeometry x="1850" y="321" width="94.25" height="58" as="geometry" />
        </mxCell>
        <mxCell id="Brfyr_elFCpzcNNpJkE2-33" value="" style="shape=table;startSize=0;container=1;collapsible=0;childLayout=tableLayout;" parent="1" vertex="1">
          <mxGeometry x="1210" y="30" width="230" height="160" as="geometry" />
        </mxCell>
        <mxCell id="Brfyr_elFCpzcNNpJkE2-34" value="" style="shape=tableRow;horizontal=0;startSize=0;swimlaneHead=0;swimlaneBody=0;strokeColor=inherit;top=0;left=0;bottom=0;right=0;collapsible=0;dropTarget=0;fillColor=none;points=[[0,0.5],[1,0.5]];portConstraint=eastwest;" parent="Brfyr_elFCpzcNNpJkE2-33" vertex="1">
          <mxGeometry width="230" height="40" as="geometry" />
        </mxCell>
        <mxCell id="Brfyr_elFCpzcNNpJkE2-35" value="Destination" style="shape=partialRectangle;html=1;whiteSpace=wrap;connectable=0;strokeColor=#666666;overflow=hidden;fillColor=#f5f5f5;top=0;left=0;bottom=0;right=1;pointerEvents=1;align=center;fontColor=#333333;" parent="Brfyr_elFCpzcNNpJkE2-34" vertex="1">
          <mxGeometry width="120" height="40" as="geometry">
            <mxRectangle width="120" height="40" as="alternateBounds" />
          </mxGeometry>
        </mxCell>
        <mxCell id="Brfyr_elFCpzcNNpJkE2-36" value="Target" style="shape=partialRectangle;html=1;whiteSpace=wrap;connectable=0;strokeColor=#666666;overflow=hidden;fillColor=#f5f5f5;top=0;left=1;bottom=0;right=0;pointerEvents=1;fontColor=#333333;" parent="Brfyr_elFCpzcNNpJkE2-34" vertex="1">
          <mxGeometry x="120" width="110" height="40" as="geometry">
            <mxRectangle width="110" height="40" as="alternateBounds" />
          </mxGeometry>
        </mxCell>
        <mxCell id="Brfyr_elFCpzcNNpJkE2-37" style="shape=tableRow;horizontal=0;startSize=0;swimlaneHead=0;swimlaneBody=0;strokeColor=inherit;top=0;left=0;bottom=0;right=0;collapsible=0;dropTarget=0;fillColor=none;points=[[0,0.5],[1,0.5]];portConstraint=eastwest;" parent="Brfyr_elFCpzcNNpJkE2-33" vertex="1">
          <mxGeometry y="40" width="230" height="40" as="geometry" />
        </mxCell>
        <mxCell id="Brfyr_elFCpzcNNpJkE2-38" value="Hub VPC" style="shape=partialRectangle;html=1;whiteSpace=wrap;connectable=0;strokeColor=inherit;overflow=hidden;fillColor=none;top=0;left=0;bottom=0;right=0;pointerEvents=1;" parent="Brfyr_elFCpzcNNpJkE2-37" vertex="1">
          <mxGeometry width="120" height="40" as="geometry">
            <mxRectangle width="120" height="40" as="alternateBounds" />
          </mxGeometry>
        </mxCell>
        <mxCell id="Brfyr_elFCpzcNNpJkE2-39" value="local" style="shape=partialRectangle;html=1;whiteSpace=wrap;connectable=0;strokeColor=inherit;overflow=hidden;fillColor=none;top=0;left=0;bottom=0;right=0;pointerEvents=1;" parent="Brfyr_elFCpzcNNpJkE2-37" vertex="1">
          <mxGeometry x="120" width="110" height="40" as="geometry">
            <mxRectangle width="110" height="40" as="alternateBounds" />
          </mxGeometry>
        </mxCell>
        <mxCell id="Brfyr_elFCpzcNNpJkE2-40" value="" style="shape=tableRow;horizontal=0;startSize=0;swimlaneHead=0;swimlaneBody=0;strokeColor=inherit;top=0;left=0;bottom=0;right=0;collapsible=0;dropTarget=0;fillColor=none;points=[[0,0.5],[1,0.5]];portConstraint=eastwest;" parent="Brfyr_elFCpzcNNpJkE2-33" vertex="1">
          <mxGeometry y="80" width="230" height="40" as="geometry" />
        </mxCell>
        <mxCell id="Brfyr_elFCpzcNNpJkE2-41" value="0.0.0.0/0" style="shape=partialRectangle;html=1;whiteSpace=wrap;connectable=0;strokeColor=#9673a6;overflow=hidden;fillColor=#e1d5e7;top=0;left=0;bottom=0;right=0;pointerEvents=1;" parent="Brfyr_elFCpzcNNpJkE2-40" vertex="1">
          <mxGeometry width="120" height="40" as="geometry">
            <mxRectangle width="120" height="40" as="alternateBounds" />
          </mxGeometry>
        </mxCell>
        <mxCell id="Brfyr_elFCpzcNNpJkE2-42" value="firewall-endpoint" style="shape=partialRectangle;html=1;whiteSpace=wrap;connectable=0;strokeColor=#9673a6;overflow=hidden;fillColor=#e1d5e7;top=0;left=0;bottom=0;right=0;pointerEvents=1;" parent="Brfyr_elFCpzcNNpJkE2-40" vertex="1">
          <mxGeometry x="120" width="110" height="40" as="geometry">
            <mxRectangle width="110" height="40" as="alternateBounds" />
          </mxGeometry>
        </mxCell>
        <mxCell id="Brfyr_elFCpzcNNpJkE2-43" style="shape=tableRow;horizontal=0;startSize=0;swimlaneHead=0;swimlaneBody=0;strokeColor=inherit;top=0;left=0;bottom=0;right=0;collapsible=0;dropTarget=0;fillColor=none;points=[[0,0.5],[1,0.5]];portConstraint=eastwest;" parent="Brfyr_elFCpzcNNpJkE2-33" vertex="1">
          <mxGeometry y="120" width="230" height="40" as="geometry" />
        </mxCell>
        <mxCell id="Brfyr_elFCpzcNNpJkE2-44" value="172.16.0.0/12" style="shape=partialRectangle;html=1;whiteSpace=wrap;connectable=0;strokeColor=inherit;overflow=hidden;fillColor=none;top=0;left=0;bottom=0;right=0;pointerEvents=1;" parent="Brfyr_elFCpzcNNpJkE2-43" vertex="1">
          <mxGeometry width="120" height="40" as="geometry">
            <mxRectangle width="120" height="40" as="alternateBounds" />
          </mxGeometry>
        </mxCell>
        <mxCell id="Brfyr_elFCpzcNNpJkE2-45" value="tgw-id " style="shape=partialRectangle;html=1;whiteSpace=wrap;connectable=0;strokeColor=inherit;overflow=hidden;fillColor=none;top=0;left=0;bottom=0;right=0;pointerEvents=1;" parent="Brfyr_elFCpzcNNpJkE2-43" vertex="1">
          <mxGeometry x="120" width="110" height="40" as="geometry">
            <mxRectangle width="110" height="40" as="alternateBounds" />
          </mxGeometry>
        </mxCell>
        <mxCell id="Brfyr_elFCpzcNNpJkE2-46" style="edgeStyle=orthogonalEdgeStyle;rounded=0;orthogonalLoop=1;jettySize=auto;html=1;dashed=1;strokeColor=light-dark(#613583, #ededed);" parent="1" source="LJ91YOR7zUgHexyTRzu9-71" target="Brfyr_elFCpzcNNpJkE2-34" edge="1">
          <mxGeometry relative="1" as="geometry">
            <Array as="points">
              <mxPoint x="1136" y="50" />
            </Array>
          </mxGeometry>
        </mxCell>
        <mxCell id="Brfyr_elFCpzcNNpJkE2-47" value="" style="shape=table;startSize=0;container=1;collapsible=0;childLayout=tableLayout;" parent="1" vertex="1">
          <mxGeometry x="1550" y="30" width="230" height="120" as="geometry" />
        </mxCell>
        <mxCell id="Brfyr_elFCpzcNNpJkE2-48" value="" style="shape=tableRow;horizontal=0;startSize=0;swimlaneHead=0;swimlaneBody=0;strokeColor=inherit;top=0;left=0;bottom=0;right=0;collapsible=0;dropTarget=0;fillColor=none;points=[[0,0.5],[1,0.5]];portConstraint=eastwest;" parent="Brfyr_elFCpzcNNpJkE2-47" vertex="1">
          <mxGeometry width="230" height="40" as="geometry" />
        </mxCell>
        <mxCell id="Brfyr_elFCpzcNNpJkE2-49" value="Destination" style="shape=partialRectangle;html=1;whiteSpace=wrap;connectable=0;strokeColor=#666666;overflow=hidden;fillColor=#f5f5f5;top=0;left=0;bottom=0;right=1;pointerEvents=1;align=center;fontColor=#333333;" parent="Brfyr_elFCpzcNNpJkE2-48" vertex="1">
          <mxGeometry width="115" height="40" as="geometry">
            <mxRectangle width="115" height="40" as="alternateBounds" />
          </mxGeometry>
        </mxCell>
        <mxCell id="Brfyr_elFCpzcNNpJkE2-50" value="Target" style="shape=partialRectangle;html=1;whiteSpace=wrap;connectable=0;strokeColor=#666666;overflow=hidden;fillColor=#f5f5f5;top=0;left=1;bottom=0;right=0;pointerEvents=1;fontColor=#333333;" parent="Brfyr_elFCpzcNNpJkE2-48" vertex="1">
          <mxGeometry x="115" width="115" height="40" as="geometry">
            <mxRectangle width="115" height="40" as="alternateBounds" />
          </mxGeometry>
        </mxCell>
        <mxCell id="Brfyr_elFCpzcNNpJkE2-51" style="shape=tableRow;horizontal=0;startSize=0;swimlaneHead=0;swimlaneBody=0;strokeColor=inherit;top=0;left=0;bottom=0;right=0;collapsible=0;dropTarget=0;fillColor=none;points=[[0,0.5],[1,0.5]];portConstraint=eastwest;" parent="Brfyr_elFCpzcNNpJkE2-47" vertex="1">
          <mxGeometry y="40" width="230" height="40" as="geometry" />
        </mxCell>
        <mxCell id="Brfyr_elFCpzcNNpJkE2-52" value="Hub VPC" style="shape=partialRectangle;html=1;whiteSpace=wrap;connectable=0;strokeColor=inherit;overflow=hidden;fillColor=none;top=0;left=0;bottom=0;right=0;pointerEvents=1;" parent="Brfyr_elFCpzcNNpJkE2-51" vertex="1">
          <mxGeometry width="115" height="40" as="geometry">
            <mxRectangle width="115" height="40" as="alternateBounds" />
          </mxGeometry>
        </mxCell>
        <mxCell id="Brfyr_elFCpzcNNpJkE2-53" value="local" style="shape=partialRectangle;html=1;whiteSpace=wrap;connectable=0;strokeColor=inherit;overflow=hidden;fillColor=none;top=0;left=0;bottom=0;right=0;pointerEvents=1;" parent="Brfyr_elFCpzcNNpJkE2-51" vertex="1">
          <mxGeometry x="115" width="115" height="40" as="geometry">
            <mxRectangle width="115" height="40" as="alternateBounds" />
          </mxGeometry>
        </mxCell>
        <mxCell id="Brfyr_elFCpzcNNpJkE2-54" value="" style="shape=tableRow;horizontal=0;startSize=0;swimlaneHead=0;swimlaneBody=0;strokeColor=inherit;top=0;left=0;bottom=0;right=0;collapsible=0;dropTarget=0;fillColor=none;points=[[0,0.5],[1,0.5]];portConstraint=eastwest;" parent="Brfyr_elFCpzcNNpJkE2-47" vertex="1">
          <mxGeometry y="80" width="230" height="40" as="geometry" />
        </mxCell>
        <mxCell id="Brfyr_elFCpzcNNpJkE2-55" value="0.0.0.0/0" style="shape=partialRectangle;html=1;whiteSpace=wrap;connectable=0;strokeColor=#9673a6;overflow=hidden;fillColor=#e1d5e7;top=0;left=0;bottom=0;right=0;pointerEvents=1;" parent="Brfyr_elFCpzcNNpJkE2-54" vertex="1">
          <mxGeometry width="115" height="40" as="geometry">
            <mxRectangle width="115" height="40" as="alternateBounds" />
          </mxGeometry>
        </mxCell>
        <mxCell id="Brfyr_elFCpzcNNpJkE2-56" value="igw-id" style="shape=partialRectangle;html=1;whiteSpace=wrap;connectable=0;strokeColor=#9673a6;overflow=hidden;fillColor=#e1d5e7;top=0;left=0;bottom=0;right=0;pointerEvents=1;" parent="Brfyr_elFCpzcNNpJkE2-54" vertex="1">
          <mxGeometry x="115" width="115" height="40" as="geometry">
            <mxRectangle width="115" height="40" as="alternateBounds" />
          </mxGeometry>
        </mxCell>
        <mxCell id="Brfyr_elFCpzcNNpJkE2-73" style="edgeStyle=orthogonalEdgeStyle;rounded=0;orthogonalLoop=1;jettySize=auto;html=1;dashed=1;entryX=0;entryY=0.382;entryDx=0;entryDy=0;entryPerimeter=0;strokeColor=light-dark(#613583, #ededed);" parent="1" source="LJ91YOR7zUgHexyTRzu9-72" target="Brfyr_elFCpzcNNpJkE2-48" edge="1">
          <mxGeometry relative="1" as="geometry">
            <Array as="points">
              <mxPoint x="1490" y="45" />
            </Array>
            <mxPoint x="1530" y="350" as="sourcePoint" />
            <mxPoint x="1621.31" y="75.28000000000003" as="targetPoint" />
          </mxGeometry>
        </mxCell>
      </root>
    </mxGraphModel>
  </diagram>
</mxfile>
